<?xml version="1.0" encoding="UTF-8" standalone="no"?>
<svg
   viewBox="0 0 512 512"
   version="1.1"
   id="svg4"
   sodipodi:docname="budget_overflow.svg"
   inkscape:version="1.1.2 (0a00cf5339, 2022-02-04)"
   xmlns:inkscape="http://www.inkscape.org/namespaces/inkscape"
   xmlns:sodipodi="http://sodipodi.sourceforge.net/DTD/sodipodi-0.dtd"
   xmlns="http://www.w3.org/2000/svg"
   xmlns:svg="http://www.w3.org/2000/svg">
  <defs
     id="defs8" />
  <sodipodi:namedview
     id="namedview6"
     pagecolor="#505050"
     bordercolor="#eeeeee"
     borderopacity="1"
     inkscape:pageshadow="0"
     inkscape:pageopacity="0"
     inkscape:pagecheckerboard="0"
     showgrid="false"
     inkscape:zoom="0.5878906"
     inkscape:cx="226.23257"
     inkscape:cy="434.60467"
     inkscape:window-width="1526"
     inkscape:window-height="836"
     inkscape:window-x="0"
     inkscape:window-y="0"
     inkscape:window-maximized="1"
     inkscape:current-layer="svg4" />
  <!--! Font Awesome Pro 6.3.0 by @fontawesome - https://fontawesome.com License - https://fontawesome.com/license (Commercial License) Copyright 2023 Fonticons, Inc. -->
  <path
     d="M64 32C28.7 32 0 60.7 0 96V416c0 35.3 28.7 64 64 64H448c35.3 0 64-28.7 64-64V192c0-35.3-28.7-64-64-64H80c-8.8 0-16-7.2-16-16s7.2-16 16-16H448c17.7 0 32-14.3 32-32s-14.3-32-32-32H64zM416 272a32 32 0 1 1 0 64 32 32 0 1 1 0-64z"
     id="path2" />
  <path
     style="fill:#800000;stroke-width:0.850498"
     d="M 48.248356,477.54197 C 26.812854,471.92556 9.6869686,455.24966 2.842249,433.3289 L 0.85049834,426.95017 V 256 85.049834 L 2.8466667,78.692548 C 5.3088907,70.850995 8.0477385,65.319216 12.758811,58.672523 21.478345,46.370431 37.013088,36.426083 51.880399,33.629388 55.603026,32.929123 111.04757,32.737084 256.8505,32.919449 l 199.86711,0.249986 4.04051,1.866084 c 5.58223,2.578112 12.62425,9.493127 15.54373,15.26338 3.41345,6.746533 3.96047,17.205032 1.27278,24.334104 -2.35853,6.255987 -7.194,12.362286 -12.47099,15.748518 -8.82785,5.664818 5.07928,5.297611 -201.41522,5.318221 -179.724392,0.01794 -187.279834,0.08057 -190.580748,1.579972 -5.459357,2.479842 -9.736059,8.875886 -9.736059,14.560816 0,3.10842 1.994368,7.94024 4.415652,10.69793 5.217215,5.94207 -11.739811,5.46002 192.635615,5.47628 115.15537,0.009 188.23765,0.33069 193.16605,0.84983 26.81489,2.82462 47.36153,19.81024 55.5644,45.93429 l 1.99617,6.35729 v 122.89701 122.89701 l -1.99175,6.37873 c -6.9302,22.1945 -24.0265,38.6991 -45.87464,44.28691 -6.24675,1.59765 -11.60879,1.6388 -207.63178,1.59318 -195.061195,-0.0454 -201.408681,-0.0964 -207.402974,-1.66702 z M 428.22591,333.94983 c 13.61275,-5.23175 22.39307,-21.30206 19.58743,-35.85016 -1.98258,-10.28031 -8.9425,-19.1571 -18.55146,-23.66081 -4.277,-2.00464 -5.88838,-2.2762 -13.36819,-2.25295 -7.61849,0.0236 -9.03495,0.28347 -13.58943,2.49245 -6.47604,3.14095 -12.67326,9.33139 -15.58332,15.56628 -3.19188,6.83869 -3.66766,18.04356 -1.06132,24.99473 6.40271,17.07621 25.25588,25.36331 42.56629,18.71046 z"
     id="path84" />
  <path
     style="fill:#800000;stroke-width:0.850498"
     d="M 51.0299,477.54942 C 45.401366,476.68152 38.46221,473.98901 32.316677,470.28836 18.531809,461.98754 8.979689,449.70988 3.2806129,432.96731 L 1.2757475,427.07749 V 255.9188 84.760118 L 3.8946861,77.25049 C 10.125454,59.384192 21.685649,46.307957 37.937786,38.742875 49.836483,33.204242 33.34689,33.594684 255.36208,33.594684 c 198.54901,0 201.90176,0.02715 205.10433,1.660977 4.87169,2.485354 12.18852,9.553227 14.73694,14.235513 5.95147,10.934798 4.31679,25.154736 -4.00999,34.882706 -5.11045,5.970413 -10.39183,8.742925 -18.4583,9.689864 -4.27993,0.502431 -78.62528,0.993855 -188.23008,1.244202 -99.63588,0.227578 -183.585171,0.630417 -186.553984,0.895197 -4.682302,0.417602 -5.855145,0.894061 -8.847624,3.594288 -6.545889,5.906599 -7.557755,12.905739 -2.974598,20.575459 1.563385,2.61625 3.875238,5.18349 5.315615,5.9028 2.21817,1.10773 21.257506,1.35298 146.708431,1.88973 255.50011,1.09319 239.27399,0.88799 246.62124,3.1188 10.85394,3.29553 19.20597,8.21202 26.89575,15.83238 7.92964,7.85806 12.65697,15.40552 16.4355,26.2402 l 2.61894,7.50963 v 123.10553 123.10553 l -2.01996,5.93892 c -7.22602,21.24538 -20.59228,35.25105 -41.12131,43.08844 l -4.91188,1.87522 -203.69436,0.11253 C 146.94485,478.1545 53.368771,477.91006 51.0299,477.54942 Z M 427.03733,334.58233 c 4.98815,-1.54068 6.57975,-2.57636 11.43647,-7.44186 7.46794,-7.48145 9.65026,-12.7743 9.70196,-23.53045 0.0334,-6.94979 -0.21903,-8.19218 -2.68031,-13.19173 -3.33023,-6.76467 -9.28493,-12.87546 -15.54019,-15.94756 -4.26114,-2.09273 -5.59063,-2.31011 -14.06157,-2.29912 -11.00333,0.0143 -14.60778,1.35627 -22.14522,8.24506 -6.87173,6.28038 -9.22037,11.74797 -9.60062,22.35007 -0.37681,10.50632 1.40183,16.0522 7.22556,22.52959 9.15653,10.18425 21.96131,13.51831 35.66392,9.286 z"
     id="path160" />
  <path
     style="fill:#ff0000;stroke-width:0.850498"
     d="M 51.026726,477.57315 C 45.79141,476.79567 37.652665,473.56804 31.367271,469.7767 18.057956,461.74854 7.7035299,447.77332 2.4721867,430.77743 1.4852026,427.57085 1.2926667,399.20336 1.2849536,255.85515 L 1.2757476,84.760121 3.8946863,77.250494 C 10.125454,59.384194 21.68565,46.307959 37.937788,38.742877 49.836485,33.204244 33.346891,33.594686 255.36209,33.594686 c 198.54902,0 201.90177,0.02715 205.10434,1.660977 4.87169,2.485353 12.18852,9.553227 14.73694,14.235514 5.95147,10.934798 4.31679,25.154736 -4.00999,34.882707 -5.32086,6.216233 -10.29711,8.725765 -19.29732,9.731678 -5.10331,0.570375 -73.96282,1.085737 -192.9193,1.443858 L 73.993359,96.106316 71.22729,98.07924 c -7.707197,5.49723 -9.737817,12.89321 -5.767795,21.00764 3.237253,6.61671 4.805229,7.40982 16.063496,8.12513 5.214184,0.33129 90.617879,0.85695 189.785989,1.16813 109.77857,0.34447 182.46804,0.89044 185.8339,1.3958 24.73507,3.71379 43.43252,20.3209 51.89238,46.09091 1.65352,5.03688 1.68901,7.73022 1.68901,128.18632 0,122.25725 -0.0112,123.0761 -1.76707,128.49741 -6.80153,21.00068 -20.74471,35.67854 -41.3742,43.55429 l -4.91188,1.87522 -203.69436,0.11253 c -112.0319,0.0619 -205.609417,-0.17187 -207.950034,-0.51947 z M 429.1785,333.66026 c 16.2364,-7.45889 23.79904,-27.04766 16.5529,-42.87533 -2.79244,-6.0995 -9.52102,-13.07146 -15.57621,-16.13959 -4.5388,-2.2998 -5.60624,-2.48577 -14.26148,-2.48473 -9.0369,8.5e-4 -9.53832,0.10022 -14.72433,2.91098 -6.08999,3.30072 -12.31585,9.72433 -14.9003,15.37361 -1.43211,3.13039 -1.75936,5.60807 -1.79736,13.60797 -0.0407,8.56362 0.19766,10.27139 1.91531,13.72374 3.97407,7.98765 10.82669,14.09893 19.13046,17.06086 6.47341,2.30906 17.23758,1.77337 23.66101,-1.17751 z"
     id="path63" />
</svg>
